<?xml version="1.0" encoding="UTF-8"?>
<svg id="_layer_2" data-name="layer 2" xmlns="http://www.w3.org/2000/svg" viewBox="0 0 549 420">
  <g id="_layer_1-2" data-name="layer 1">
    <path class="cls-1" d="m38.74,260.08v58.43h187.11v21.09H38.74v57.12h200.76v-136.64H38.74Zm28.62-90.5l-36.98,69.42h214.4l-35.66-69.42H67.36Zm416.48-83.03h21.57l43.59,333.45h-21.13l-44.03-333.45Zm-163.33,0h21.13l-43.59,333.45h-21.57l44.03-333.45ZM401.95,2.64h21.14v44.81h124.15v21.09h-124.15v351.46h-21.14V68.54h-123.71v-21.09h123.71V2.64ZM134.28,0h24.21l-12.77,23.72h128.12v21.09h-139.56l-22.01,41.3h161.57v21.09H100.82l-22.01,41.29h195.03v21.09h-40.94l42.7,80.84h-14.97v167.38H17.61v-167.38H0l43.15-80.84H3.52v-21.09h51.07l22.01-41.29H3.52v-21.09h84.53l22.01-41.3H3.52v-21.09h117.99L134.28,0Z"/>
  </g>
</svg>